<?xml version="1.0" encoding="UTF-8"?>
<svg version="1.1" viewBox="0 0 2012 1984" width="503" height="496" xmlns="http://www.w3.org/2000/svg">
<path transform="translate(1144,702)" d="m0 0 9 3 21 10 16 5 21 4 42 6 29 6 20 7 17 9 10 8 7 7 9 14 5 15 2 15v13l-2 14-5 15-7 14-9 12-9 10-8 8-13 8-14 7-18 6-23 5-42 6-20 3-6 2 2 10 14 25 15 24 16 26 21 32 24 38 13 21 11 17 15 24 28 44 15 24 11 19 13 21 15 24 12 19 13 21 19 32 10 16 16 28 12 22 10 22 3 9h-94l-1-3-3-39-3-17-6-17-7-11-8-8-18-12-16-8-14-6-43-15-14-7-12-9-5-7 2-5 9-9 17-13 11-9 10-8 8-11 5-10 3-11v-14l-2-10-9 2-14 7-12 11-9 11-13 14-7 9-12 13-9 11-14 15-5 5-9 8h-12l-10-4-12-8-17-14-13-11-14-10-17-9-13-4h-18l3 12 7 17 15 29 12 22 15 27 12 22 12 21 14 27 12 24 4 11v2h-110l2-10 8-24 1-5v-15l-4-13-9-14-7-8-8-7-10-9-8-7-5-5-8-9-11-18-8-17-10-30-9-35-6-20-8-16-5-4-8-3-7 1-4 6-2 11v11l4 24 7 28 14 47 2 8v5l-8 1h-24l-21-1-13-2-16-5-10-7-9-9-12-16-12-15-11-7-6-2-8-1-8 3-6 7-8 11-9 12-11 12-9 10-14 11-14 9-16 8-20 7-26 5-42 5-8 4-7 14-4 19v21l2 20v14h-67l-1-2 6-23 8-20 13-26 13-22 8-13 6-7 10-5 22-6 17-8 10-8 4-7 3-12 2-34 3-17 5-15 9-16 7-10-6 4-10 9-9 10-10 16-6 10-6 11-9 16-9 12-8 9-13 8-9 3-5 1h-15l-10-3-9-5-7-8-4-9-1-5v-10l3-14 8-16 18-27 5-13 2-13-45 6h-26l-10-3-8-6-8-9-4-12-2-12v-7l10 1 23 4 49 4 15 3 9 4 8 7 5 10v24l-6 15-12 22-8 16-3 9v15l5 8 6 4h13l10-5 8-7 12-18 15-23 8-12 13-16 14-15 11-9 11-8 16-9 15-7 20-6 38-8 12-5 8-7 5-10 9-37 4-14 5-12 8-16 12-17 10-11 7-8 15-12 18-11 12-5 10-3h5l-1 5-10 18-8 13-4 11-1 6v12l4 16 7 11 8 6 11 5 17 5 13 2 13 1h58l53-2h37l13 3 12 7 15 15 13 9 21 7-3-10-6-10-12-13-13-13-11-9-12-8-12-4-6-1h-49l-29 1h-54l-25-3-21-5-8-4-1-2v-17l2-5 7-2 19-1h19l25 1 12 3 6 4 9 15 6 4 6 1 2-19 1-21 3-10 5-5 6-4 15-5 23-6 8-4 6-4 1-2-32-2-4-2 1-4 8-5 3-1h19l13 2h14l10-4h2l-4-7-8-7-15-6-7-1h-24l-12 3-11 6-8 8-12 17-16 26-7 11-2 1h-70l2-6 9-16 7-12 1-3v-16l-1-5v-17l4-19 6-17 6-11 7-9 10-6 13-3 42-6 34-10h18l13 4 16 8 9 4 17 3h24l27-4 24-7 20-8 17-9 11-9 6-8 3-7v-18l-4-11-7-10-9-9-14-8-11-5-20-6-35-8-15-5-14-7-9-7-6-7-6-13z"/>
<path transform="translate(967,605)" d="m0 0h51l34 3 33 5 29 6 24 6 22 7 21 7 28 12 17 8 16 8 6 4v2l-9-1-19-6-29-6-26-4-24-2h-51l-33 3-26 4-32 7-33 10-28 11-18 8-16 8-23 13-16 10-19 14-13 10-11 9-12 11-15 14-11 11-7 8-12 14-10 13-14 20-12 19-16 29-12 25-11 29-10 33-7 30-5 33-3 39v28l3 40v12l-5 4h-2v2l-8 7h-2v2l-4 4h-2l-2 4-7 7-7 9-8 11-13 21-11 17-6 8h-3l1-4 9-16 6-11 11-23 2-9v-23l-3-13-6-11-8-8-12-7-15-5-22-3-29-2-30-5-25-6-3-2v-21l3-29 5-33 7-30 7-25 12-35 12-28 17-35 15-25 12-18 13-18 10-14 11-13 9-11 8-8 7-8 19-19 8-7 10-9 10-8 13-10 17-13 15-10 16-10 21-12 27-14 21-9 29-11 21-7 44-11 42-7 26-3z" fill="#E6222A"/>
<path transform="translate(740,1356)" d="m0 0h3l10 25 3 5-1 5-7 9-8 13-6 15-3 10-4 37h96l2-18 1-7 5 1 15 11 20 14 21 13 18 10 27 13 30 12 24 8 36 9 36 6 22 2h68l28-3 30-5 35-9 36-12 28-12 25-12 22-13 13-8h30l-2 4-12 13-7 8-25 25-8 7-14 12-17 13-17 12-20 13-26 15-23 12-26 12-27 10-34 11-32 8-32 6-36 4-17 1h-63l-32-3-28-4-28-6-32-9-33-11-24-10-33-16-17-9-23-14-19-13-19-14-16-13-11-9-16-15-8-7-16-16-9-11-3-3v-2h47l-6-44-1-10v-22l2-14 3-5 31-3 24-4 25-7 21-9z" fill="#E6222A"/>
<path transform="translate(496,387)" d="m0 0 4 1 7 14 17 41 4 9 3-1 9-11 13-15 9-11 11-13 5-6 7-7 119-1-1 11-9 45-18 86-16 75-4 17-1 1h-126l1-8 10-49 13-59 2-9h-2l-2 5-10 13-12 14-9 11-10 13-1 2-3-1-8-20-12-36-2 3-9 40-11 52-6 28-2 1h-125l-1-4 13-65 16-74 12-57 7-33 1-1z"/>
<path transform="translate(1447,388)" d="m0 0h197l6 4 11 9 14 12 16 13 4 4-5 25-17 81-8 37-4 8-10 7-20 13-22 14-9 6-3 1h-198l-16-13-10-8-16-13-10-8 2-16 18-84 10-47 5-6 27-16 18-11 18-10zm60 53-6 1-3 13-6 30-13 60-4 24 47 1h16l3-2 6-26 19-88 1-12-12-1z"/>
<path transform="translate(1099,387)" d="m0 0h94l128 1 5 5 13 12 20 20 1 3-15 68-2 5-19 10-22 12-4 3 19 14 14 11 2 4-10 45-4 20-1 2h-125l-2-3 1-12 11-55h-57v8l-7 33-3 9-41-9-40-6-36-4v-9l13-63 13-60 12-56 2-7zm71 54-4 16-7 36v6h57l2-6 10-49v-3z"/>
<path transform="translate(790,387)" d="m0 0h167l23 1 11 10 10 8 15 13 12 10-1 11-11 55-15 69-5 17-1 1-9 1-36 2-35 4-39 7-30 7-26 8-32 11h-55l-13-11-14-11-11-9-12-9-1-2v-8l10-49 14-65 7-29 8-5 12-7 28-17 19-10 2-2zm46 54-9 40-15 71-3 17 63 1 3-1 8-35 12-56 7-33v-4z"/>
<path transform="translate(836,153)" d="m0 0 247 1-1 12-7 35-1 1-35 1h-96l-5 25-3 10h100l-1 9-9 39-2 2h-100l-1 13-4 18 129 1 1 3-8 41-2 5h-249l1-10 10-50 16-75 14-66 4-14z"/>
<path transform="translate(1170,153)" d="m0 0h53l1 5-14 70-7 32-13 60h74l-1 9-8 39-1 1h-190l-1-4 9-45 14-66 14-67 7-30 1-3z"/>
<path transform="translate(697,1699)" d="m0 0 6 1 30 13 44 20 1 4-6 12 17-7 5-1h24l12 3 14 7 11 9 8 10 6 13 3 12v21l-5 16-6 12-9 10-8 7-16 8-13 3h-17l-12-3-9-4-12-7-7-6-7-10-7-14-3-11-1-7v-9l4-16 8-16 8-11-1-3-16-7-4-1-1 5-15 33-10 23-7 15-6 11-6-1-16-8-1-4 18-40 13-29 6-14v-3l-24-11-2-3 5-10zm102 67-11 4-8 6-8 9-4 8-1 4v19l7 14 4 5 10 7 13 4h11l10-3 10-6 8-9 5-10 1-4v-16l-4-10-6-9-7-6-11-6-4-1z" fill="#ED8535"/>
<path transform="translate(475,1500)" d="m0 0 5 4 10 13 10 12 12 17 4 8 1 4v13l-4 11-6 8-8 7-8 4-10 1-3 11-7 10-8 7-10 4-4 1h-14l-11-4-10-9-10-11-24-32 1-5 11-9 14-11 18-14 14-11 18-14 13-11zm-6 38-11 8-3 3v6l10 13 7 7 5 3 6-1 5-5 3-5-3-9-13-18-2-2zm-38 31-12 8-3 3 2 6 10 14 10 9 3 2 5-1 7-6 2-7-4-8-13-16-4-4z" fill="#ED8535"/>
<path transform="translate(1521,1479)" d="m0 0 4 2 25 20 13 10 36 28 17 13 4 4-14 16h-37l-45-1-6-1 4 5 11 8 10 8 13 10 16 12v4l-13 15-4 2-17-12-13-11-14-11-16-13-12-9-13-10-10-9 1-4 6-8 3-5h23l65 1-11-10-14-11-18-14-8-7 1-5 11-14z" fill="#ED8535"/>
<path transform="translate(954,1770)" d="m0 0h46l13 4 13 7 10 9 7 10 5 14 2 9v17l-5 17-7 11-14 14-10 6-14 4-17 2h-43l-1-2-3-69-1-28v-23l1-1zm21 25-11 1-2 3v21l1 42 1 5h32l11-4 9-8 5-9 2-6 1-13-2-9-6-10-7-7-8-4-11-2z" fill="#ED8535"/>
<path transform="translate(467,1197)" d="m0 0 7 4 9 6 13 6 8 2 39 1-2 5-6 10-8 16-4 12-2 14v7l4 16 7 14 9 10 14 8 9 3 8 2-1 4-14 25-9 15-12 23h-2l-13-25-8-16-12-28-9-24-9-29-9-36-7-38-1-5z" fill="#E6242A"/>
<path transform="translate(1441,1587)" d="m0 0h16l10 3 13 7 8 7 7 11 3 8 1 9-1 14 17 4 19 5 2 1-2 4-5 5h-2l-1 3-8 7-3 2-9-1-16-5h-6l-13 13 7 7 8 10-1 5-15 15-5-3-11-10-9-11-14-14-7-8-15-15-7-8-13-14-4-5 1-5 21-21 11-9 11-7zm5 26-9 3-10 8-6 8 2 4 9 9 7 8 12 12 4-1 2-4 4-2 8-9 4-10v-8l-4-8-9-8-6-2z" fill="#ED8535"/>
<path transform="translate(565,1606)" d="m0 0 6 1 8 7 4 3-1 8-8 30-19 66-8 27-4-1-12-9-5-5-2-3 2-7v-11l-4-2-10-9-11-9-7-7-10-8-2-1h-7l-6 3h-6l-9-9-9-7v-4l24-10 14-7 32-14 26-11zm-18 37-25 11-15 6v3l11 9 15 14 4 1 3-8 7-25 2-6v-5z" fill="#ED8535"/>
<path transform="translate(430,1433)" d="m0 0 7 1 7 12-1 8-11 16-14 19-7 11-12 16-9 13-14 20-9 12-4-4-9-15-1-2v-6l6-8-1-7-16-29-9-16-4-5-14 1-7-9-7-12-2-3v-3l96-8zm-37 29-30 3-4 1 2 5 12 23 4 7 5-4 20-30 2-5z" fill="#ED8535"/>
<path transform="translate(1338,1663)" d="m0 0 11 6 18 11 14 9 24 15 44 28 4 3-2 4-18 12-4 1-9-7-7 1-18 10-27 18-4 3v18l-18 10-3 2-4-1-4-25-12-93v-15l9-6zm15 41-1 2 4 35 2 7 4-1 20-13 9-6-2-4-15-9-19-11z" fill="#ED8535"/>
<path transform="translate(811,1332)" d="m0 0h13l24 4 24 8 8 5v5l-9 12-12 9-19 12-14 10-9 9-5 11-4 14-3 19-1 2-49 1-3-1-1-3 3-12 6-15 8-11 9-13 1-3v-12l-8-17 1-4 17-12 10-9 8-6z"/>
<path transform="translate(1563,1396)" d="m0 0 6 2 17 9-2 6-14 29-8 16 5 2 14 7 2-3 11-23 7-12 9 3 15 6-2 7-8 16-9 17v3l14 7 5 1 2-5 12-23 10-19 6 1 16 7 2 4-10 21-12 22-14 27-1 2-5-1-22-12-41-21-37-19-5-2 1-5 11-23 19-38z" fill="#ED8535"/>
<path transform="translate(1134,1752)" d="m0 0 3 1 3 18v8l-52 10 1 22 37-8 9-1 4 21-1 5-22 5-21 4 3 12v9l44-8 13-1 4 21-1 4-6 2-65 12-8 1-2-3-7-35-13-72-1-12 9-2 53-10z" fill="#ED8535"/>
<path transform="translate(837,799)" d="m0 0 3 2 2 17-2 11-7 18-1 4v11l5 8 9 6 11 5 24 6 18 2 42 2-1 6-7 25-4 11-1 1h-20l-29-4-25-6-19-7-15-8-10-8-7-7-6-12-1-3v-11l4-13 6-11 14-22 10-14z"/>
<path transform="translate(633,1666)" d="m0 0h14l10 3 12 6 9 8 8 11 4 9v9l-3 3-18 2-5-5-4-7-9-8-7-3h-8l-6 4-1 6 4 8 14 15 8 10 5 9 2 7v13l-5 10-9 10-10 6-5 2-9 1-14-2-16-8-10-9-6-7-5-10-3-9-2-10v-4l5-1 21-1 5 15 6 8 8 6 7 3h8l5-4 1-5-5-10-10-9-11-14-6-12-1-3v-13l4-11 7-9 9-6 7-3z" fill="#ED8535"/>
<path transform="translate(1261,1705)" d="m0 0h19l12 3 1 5-7 17-3 3h-21l-10 3-8 6-6 7-5 12-1 4v11l3 10 6 11 7 6 10 4 5 1h15l10-3 9-6 6-7 3-6 8 1 16 6 1 3-8 15-13 13-16 8-9 3-6 1h-20l-13-3-14-7-10-9-7-10-8-16-4-16v-8l3-14 6-14 8-12 9-9 12-7 15-5z" fill="#ED8535"/>
<path transform="translate(1240,667)" d="m0 0 6 2 2 4-9-1z" fill="#E95930"/>
</svg>
